<svg width="62.000000" height="62.000000" viewBox="0 0 62 62" fill="none" xmlns="http://www.w3.org/2000/svg" xmlns:xlink="http://www.w3.org/1999/xlink">
	<desc>
			Created with Pixso.
	</desc>
	<defs/>
	<circle id="Ellipse 21" cx="31.000000" cy="31.000000" r="31.000000" fill="#FFFFFF" fill-opacity="1.000000"/>
	<path id="59" d="M34.71 27.7Q34.35 27.33 34.24 26.71L32.16 26.71Q32.2 27.34 32.43 27.89Q32.53 28.13 32.66 28.36Q32.74 28.48 32.82 28.6Q33.24 29.18 33.94 29.56Q34.77 30.01 35.95 30.01Q37.46 30.01 38.33 29.32Q38.33 29.32 38.34 29.31Q39.2 28.63 39.56 27.31Q39.92 25.98 39.92 23.9Q39.92 20.97 38.98 19.51Q38.77 19.19 38.5 18.93Q37.54 18.06 35.78 18.06Q34.27 18.06 33.28 18.77Q33.08 18.93 32.89 19.11Q32.67 19.33 32.49 19.58Q31.84 20.53 31.84 21.93Q31.84 23.13 32.32 23.97Q32.62 24.5 33.06 24.87Q33.32 25.08 33.62 25.24Q33.68 25.26 33.73 25.29Q34.51 25.66 35.47 25.66Q36.15 25.66 36.74 25.44Q36.82 25.41 36.9 25.37Q37.53 25.1 37.89 24.63Q37.92 24.6 37.94 24.57Q37.94 26.52 37.49 27.35Q37.29 27.72 36.98 27.92Q36.59 28.17 36.05 28.17Q35.28 28.17 34.82 27.8Q34.77 27.75 34.71 27.7ZM24 20.27L29.18 20.27L29.18 18.3L21.95 18.3L21.95 25.15L24.1 25.15Q24.22 24.78 24.46 24.5Q24.58 24.37 24.73 24.25Q24.77 24.23 24.81 24.2Q25.24 23.92 25.85 23.92Q26.71 23.92 27.19 24.34Q27.24 24.39 27.29 24.44Q27.78 24.96 27.78 25.95Q27.78 26.92 27.3 27.51Q27.3 27.51 27.3 27.52Q27.19 27.65 27.06 27.75Q26.61 28.11 25.87 28.11Q25.11 28.11 24.62 27.75Q24.6 27.74 24.58 27.73Q24.37 27.56 24.22 27.35Q24.02 27.06 23.94 26.7L21.76 26.7Q21.84 27.53 22.23 28.19Q22.52 28.69 22.99 29.08Q23.02 29.11 23.04 29.13Q24.12 30 25.9 30Q27.54 30 28.54 29.2Q28.72 29.05 28.89 28.88Q29.08 28.67 29.24 28.44Q29.94 27.42 29.94 25.92Q29.94 25.13 29.71 24.43Q29.64 24.24 29.57 24.05Q29.43 23.73 29.23 23.45Q28.9 22.97 28.38 22.62Q27.57 22.06 26.29 22.06Q25.78 22.06 25.32 22.19Q25.14 22.25 24.96 22.32Q24.33 22.59 24 23L24 20.27ZM37 23.54Q36.57 23.83 35.94 23.83Q35.05 23.83 34.56 23.39Q34.52 23.35 34.47 23.3Q34.37 23.19 34.29 23.06Q33.98 22.59 33.98 21.92Q33.98 21.19 34.32 20.7Q34.4 20.6 34.49 20.5Q34.61 20.36 34.77 20.26Q35.21 19.96 35.85 19.96Q36.53 19.96 36.99 20.28Q37.12 20.37 37.22 20.48Q37.26 20.52 37.3 20.56Q37.73 21.07 37.73 21.95Q37.73 22.69 37.38 23.17Q37.32 23.25 37.25 23.32Q37.13 23.45 37 23.54Z" fill="#000000" fill-opacity="1.000000" fill-rule="evenodd"/>
	<path id="Minutes" d="M20.05 35.93Q20.18 35.99 20.33 35.99Q20.46 35.99 20.57 35.94Q20.7 35.89 20.8 35.79Q20.89 35.7 20.93 35.59Q20.99 35.46 20.99 35.31Q20.99 35.14 20.93 35.01Q20.88 34.91 20.8 34.82Q20.7 34.72 20.57 34.67Q20.46 34.62 20.33 34.62Q20.18 34.62 20.05 34.68Q19.94 34.73 19.84 34.82Q19.76 34.91 19.71 35.01Q19.65 35.15 19.65 35.31Q19.65 35.46 19.7 35.59Q19.75 35.7 19.84 35.79Q19.94 35.88 20.05 35.93ZM18.12 43L18.12 35.38L17.05 35.38L14.24 41.67L11.42 35.38L10.34 35.38L10.34 43L11.34 43L11.34 37.31L13.88 43L14.59 43L17.12 37.32L17.12 43L18.12 43ZM37.82 41.35L37.82 37.79L39.39 37.79L39.39 36.97L37.82 36.97L37.82 35.45L36.82 35.45L36.82 36.97L36.04 36.97L36.04 37.79L36.82 37.79L36.82 41.35Q36.82 42.22 37.24 42.61Q37.66 43 38.49 43L39.39 43L39.39 42.15L38.66 42.15Q38.19 42.15 38.01 41.97Q37.82 41.78 37.82 41.35ZM26.86 37.23Q26.28 36.86 25.46 36.86Q24.94 36.86 24.5 37.03Q24.41 37.07 24.33 37.11Q24.01 37.27 23.77 37.51Q23.63 37.65 23.52 37.83L23.52 36.97L22.52 36.97L22.52 43L23.52 43L23.52 39.66Q23.52 38.72 23.99 38.22Q24.11 38.09 24.26 37.99Q24.67 37.73 25.25 37.73Q25.84 37.73 26.25 38.01Q26.37 38.09 26.48 38.2L26.48 38.21Q26.93 38.68 26.93 39.58L26.93 43L27.92 43L27.92 39.44Q27.92 38.3 27.36 37.65Q27.3 37.58 27.24 37.52Q27.07 37.35 26.86 37.23ZM46.07 40.36Q46.1 40.04 46.1 39.75Q46.1 39 45.8 38.39Q45.78 38.33 45.74 38.27Q45.59 37.98 45.37 37.74Q45.09 37.45 44.73 37.24Q44.7 37.23 44.68 37.21Q44.04 36.87 43.21 36.87Q42.35 36.87 41.69 37.23Q41.67 37.24 41.65 37.25Q41.38 37.4 41.16 37.6Q40.83 37.91 40.6 38.33Q40.23 39.03 40.23 39.97Q40.23 40.91 40.61 41.61Q40.85 42.05 41.2 42.37Q41.42 42.56 41.68 42.71Q41.77 42.77 41.87 42.81Q42.48 43.09 43.21 43.09Q44.19 43.09 44.87 42.65Q44.95 42.6 45.01 42.55Q45.39 42.27 45.64 41.9Q45.86 41.55 45.98 41.14L44.9 41.14Q44.81 41.4 44.65 41.61Q44.5 41.8 44.29 41.95Q43.86 42.25 43.21 42.25Q42.72 42.25 42.33 42.06Q42.08 41.94 41.86 41.75Q41.75 41.65 41.66 41.53Q41.3 41.07 41.25 40.36L46.07 40.36ZM48.31 42.86Q48.86 43.09 49.56 43.09Q50.21 43.09 50.71 42.87Q51.17 42.66 51.44 42.3Q51.46 42.27 51.48 42.25Q51.6 42.07 51.67 41.88Q51.76 41.63 51.76 41.36Q51.75 40.86 51.5 40.53Q51.48 40.5 51.45 40.47Q51.29 40.27 51.09 40.14Q50.93 40.03 50.75 39.96Q50.35 39.78 49.7 39.61Q49.18 39.46 48.89 39.35Q48.6 39.23 48.41 39.04Q48.34 38.97 48.29 38.89Q48.21 38.74 48.21 38.55Q48.21 38.39 48.27 38.25Q48.35 38.08 48.53 37.95Q48.85 37.72 49.39 37.72Q49.97 37.72 50.32 38Q50.32 38 50.32 38Q50.47 38.12 50.55 38.27Q50.68 38.48 50.7 38.76L51.7 38.76Q51.67 38.18 51.4 37.77Q51.25 37.55 51.04 37.37Q51.02 37.35 50.99 37.33Q50.38 36.87 49.43 36.87Q48.78 36.87 48.27 37.09Q47.76 37.32 47.49 37.7L47.49 37.7Q47.34 37.92 47.27 38.16Q47.22 38.35 47.22 38.55Q47.22 39.09 47.47 39.44Q47.49 39.47 47.52 39.49Q47.7 39.71 47.92 39.86Q48.07 39.96 48.24 40.03Q48.67 40.21 49.34 40.39Q50.08 40.58 50.43 40.77Q50.61 40.87 50.69 41.01Q50.78 41.16 50.78 41.36Q50.78 41.51 50.73 41.64Q50.65 41.84 50.45 41.99Q50.12 42.25 49.55 42.25Q48.93 42.25 48.55 41.96Q48.33 41.79 48.22 41.57Q48.15 41.41 48.13 41.23L47.09 41.23Q47.11 41.56 47.24 41.85Q47.32 42.03 47.44 42.2Q47.46 42.23 47.49 42.25Q47.8 42.64 48.31 42.86ZM20.81 43L20.81 36.97L19.81 36.97L19.81 43L20.81 43ZM34.9 43L34.9 36.97L33.9 36.97L33.9 40.28Q33.9 41.23 33.44 41.72Q33.33 41.84 33.2 41.93Q32.79 42.21 32.18 42.21Q31.58 42.21 31.17 41.93Q31.05 41.85 30.94 41.74Q30.94 41.73 30.94 41.73Q30.5 41.25 30.5 40.37L30.5 36.97L29.5 36.97L29.5 40.5Q29.5 41.34 29.83 41.92Q30.05 42.31 30.37 42.57Q30.53 42.7 30.71 42.79Q30.73 42.8 30.74 42.81Q31.29 43.08 31.98 43.08Q32.49 43.08 32.93 42.91Q33.02 42.87 33.11 42.83Q33.46 42.64 33.71 42.36Q33.82 42.24 33.9 42.1L33.9 43L34.9 43ZM44.82 38.56Q45.07 38.97 45.07 39.54L41.26 39.54Q41.33 38.83 41.7 38.38Q41.78 38.28 41.87 38.2Q42.08 38.01 42.33 37.89Q42.71 37.72 43.17 37.72Q43.63 37.72 44.02 37.88Q44.08 37.9 44.13 37.93Q44.35 38.04 44.52 38.2Q44.69 38.35 44.82 38.56Z" fill="#000000" fill-opacity="1.000000" fill-rule="evenodd"/>
</svg>
