<svg width="62.000000" height="62.000000" viewBox="0 0 62 62" fill="none" xmlns="http://www.w3.org/2000/svg" xmlns:xlink="http://www.w3.org/1999/xlink">
	<desc>
			Created with Pixso.
	</desc>
	<defs/>
	<circle id="Ellipse 22" cx="31.000000" cy="31.000000" r="31.000000" fill="#FFFFFF" fill-opacity="1.000000"/>
	<path id="35" d="M22.53 19.43Q21.93 20.22 21.87 21.4L24.07 21.4Q24.11 20.98 24.32 20.65Q24.41 20.5 24.54 20.37Q24.58 20.33 24.62 20.29Q25.02 19.96 25.7 19.96Q26.47 19.96 26.87 20.35Q26.95 20.42 27.02 20.5Q27.28 20.86 27.28 21.42Q27.28 21.89 27.07 22.21Q26.58 22.94 25.01 22.94L24.55 22.94L24.55 24.78L25.01 24.78Q26.29 24.78 26.9 25.2Q27.03 25.29 27.14 25.41Q27.51 25.82 27.51 26.57Q27.51 27.09 27.28 27.48Q27.19 27.62 27.07 27.75Q27.02 27.8 26.96 27.85Q26.54 28.2 25.81 28.2Q25.01 28.2 24.52 27.81Q24.47 27.77 24.43 27.73Q24.29 27.6 24.18 27.45Q23.91 27.04 23.89 26.48L21.71 26.48Q21.77 27.86 22.46 28.72Q22.66 28.96 22.91 29.16Q22.97 29.21 23.03 29.25Q24.14 30.07 25.86 30.07Q27.06 30.07 27.91 29.65Q28.59 29.31 29.01 28.77Q29.12 28.63 29.21 28.48Q29.29 28.34 29.35 28.2Q29.65 27.55 29.65 26.76Q29.65 25.61 29.13 24.88Q28.97 24.64 28.76 24.45Q28.31 24.05 27.68 23.85L27.68 23.79Q27.78 23.75 27.88 23.71Q28.47 23.45 28.92 22.85Q29 22.74 29.07 22.63Q29.44 22 29.44 21.15Q29.44 20.49 29.2 19.93Q29.12 19.75 29.02 19.57Q28.97 19.49 28.91 19.4Q28.49 18.82 27.76 18.47Q26.93 18.06 25.76 18.06Q24.14 18.06 23.12 18.84Q23.06 18.88 23 18.93Q22.73 19.16 22.53 19.43ZM34.08 20.27L39.27 20.27L39.27 18.3L32.04 18.3L32.04 25.15L34.18 25.15Q34.31 24.78 34.55 24.5Q34.67 24.37 34.82 24.25Q34.85 24.23 34.89 24.2Q35.32 23.92 35.94 23.92Q36.79 23.92 37.27 24.34Q37.32 24.39 37.37 24.44Q37.86 24.96 37.86 25.95Q37.86 26.92 37.39 27.51Q37.38 27.51 37.38 27.52Q37.27 27.65 37.14 27.75Q36.69 28.11 35.95 28.11Q35.2 28.11 34.7 27.75Q34.68 27.74 34.67 27.73Q34.45 27.56 34.3 27.35Q34.1 27.06 34.02 26.7L31.84 26.7Q31.92 27.53 32.31 28.19Q32.6 28.69 33.08 29.08Q33.1 29.11 33.13 29.13Q34.21 30 35.99 30Q37.62 30 38.62 29.2Q38.81 29.05 38.97 28.88Q39.16 28.67 39.32 28.44Q40.02 27.42 40.02 25.92Q40.02 25.13 39.79 24.43Q39.73 24.24 39.65 24.05Q39.51 23.73 39.32 23.45Q38.98 22.97 38.47 22.62Q37.65 22.06 36.37 22.06Q35.87 22.06 35.4 22.19Q35.22 22.25 35.04 22.32Q34.42 22.59 34.08 23L34.08 20.27Z" fill="#000000" fill-opacity="1.000000" fill-rule="evenodd"/>
	<path id="Seconds" d="M41.87 38.34Q41.5 39.03 41.5 39.96Q41.5 40.87 41.87 41.58L41.87 41.59Q42.14 42.08 42.53 42.42Q42.7 42.58 42.9 42.7Q43.12 42.83 43.36 42.92Q43.83 43.09 44.36 43.09Q45.12 43.09 45.7 42.77Q45.71 42.76 45.73 42.75Q46.21 42.46 46.5 42.03Q46.56 41.95 46.61 41.86L46.61 43L47.62 43L47.62 34.86L46.61 34.86L46.61 38.05Q46.56 37.97 46.51 37.9Q46.2 37.47 45.68 37.19Q45.44 37.07 45.19 36.99Q44.8 36.87 44.37 36.87Q43.76 36.87 43.25 37.08Q43.07 37.16 42.9 37.25Q42.68 37.38 42.49 37.55Q42.12 37.88 41.87 38.34ZM8.92 42.8Q9.51 43.07 10.27 43.07Q11.07 43.07 11.65 42.76Q12.2 42.47 12.49 42.02Q12.51 41.99 12.53 41.96Q12.71 41.67 12.78 41.35Q12.83 41.13 12.83 40.91Q12.83 40.18 12.5 39.76Q12.24 39.43 11.92 39.24Q11.81 39.18 11.7 39.13Q11.24 38.92 10.48 38.72Q9.86 38.54 9.51 38.4Q9.25 38.3 9.05 38.13Q8.99 38.07 8.93 38Q8.88 37.95 8.84 37.9Q8.69 37.66 8.69 37.32Q8.69 36.92 8.87 36.65Q8.96 36.52 9.08 36.41Q9.12 36.38 9.16 36.35Q9.54 36.09 10.11 36.09Q10.76 36.09 11.16 36.41Q11.17 36.41 11.18 36.42Q11.52 36.7 11.62 37.04Q11.64 37.12 11.65 37.2L12.75 37.2Q12.7 36.72 12.48 36.35Q12.29 36.02 11.97 35.77Q11.93 35.74 11.9 35.71Q11.23 35.23 10.21 35.23Q9.46 35.23 8.88 35.49Q8.42 35.7 8.13 36.05Q8.05 36.14 7.98 36.24Q7.9 36.36 7.84 36.49Q7.67 36.88 7.67 37.35Q7.67 38.07 7.99 38.49Q8.25 38.82 8.58 39.02Q8.67 39.07 8.77 39.11Q9.23 39.31 9.99 39.51Q10.6 39.67 10.96 39.82Q11.26 39.93 11.47 40.13Q11.53 40.18 11.57 40.23Q11.61 40.28 11.64 40.32Q11.81 40.57 11.81 40.95Q11.81 41.25 11.69 41.49Q11.59 41.7 11.4 41.87Q11.39 41.87 11.39 41.88Q10.98 42.22 10.27 42.22Q9.52 42.22 9.13 41.86Q8.95 41.68 8.84 41.47Q8.72 41.23 8.69 40.95L7.62 40.95Q7.63 41.38 7.8 41.75Q7.87 41.91 7.98 42.06Q8.01 42.1 8.05 42.15Q8.38 42.56 8.92 42.8ZM39.18 37.23Q38.59 36.86 37.77 36.86Q37.26 36.86 36.82 37.03Q36.73 37.07 36.65 37.11Q36.33 37.27 36.09 37.51Q35.95 37.65 35.84 37.83L35.84 36.97L34.83 36.97L34.83 43L35.84 43L35.84 39.66Q35.84 38.72 36.3 38.22Q36.43 38.09 36.58 37.99Q36.98 37.73 37.56 37.73Q38.16 37.73 38.57 38.01Q38.69 38.09 38.8 38.2L38.8 38.21Q39.25 38.68 39.25 39.58L39.25 43L40.24 43L40.24 39.44Q40.24 38.3 39.67 37.65Q39.62 37.58 39.56 37.52Q39.38 37.35 39.18 37.23ZM19.77 40.36Q19.8 40.04 19.8 39.75Q19.8 39 19.5 38.39Q19.47 38.33 19.44 38.27Q19.28 37.98 19.06 37.74Q18.79 37.45 18.42 37.24Q18.4 37.23 18.37 37.21Q17.73 36.87 16.91 36.87Q16.05 36.87 15.39 37.23Q15.37 37.24 15.35 37.25Q15.08 37.4 14.86 37.6Q14.52 37.91 14.3 38.33Q13.92 39.03 13.92 39.97Q13.92 40.91 14.31 41.61Q14.55 42.05 14.9 42.37Q15.11 42.56 15.37 42.71Q15.47 42.77 15.57 42.81Q16.17 43.09 16.91 43.09Q17.88 43.09 18.57 42.65Q18.64 42.6 18.71 42.55Q19.09 42.27 19.33 41.9Q19.56 41.55 19.68 41.14L18.6 41.14Q18.51 41.4 18.34 41.61Q18.2 41.8 17.99 41.95Q17.56 42.25 16.91 42.25Q16.42 42.25 16.02 42.06Q15.77 41.94 15.56 41.75Q15.45 41.65 15.36 41.53Q14.99 41.07 14.95 40.36L19.77 40.36ZM21.12 38.34Q20.74 39.03 20.74 39.97Q20.74 40.92 21.12 41.62Q21.35 42.06 21.7 42.38Q21.91 42.57 22.16 42.71Q22.22 42.75 22.29 42.78Q22.91 43.09 23.68 43.09Q24.66 43.09 25.34 42.65Q25.42 42.6 25.5 42.54Q25.79 42.32 26 42.03Q26.32 41.61 26.46 41.06L25.39 41.06Q25.27 41.47 25 41.75Q24.9 41.86 24.78 41.94Q24.34 42.25 23.68 42.25Q23.15 42.25 22.75 42.02Q22.5 41.88 22.29 41.65Q21.77 41.06 21.77 39.97Q21.77 38.89 22.29 38.3Q22.49 38.08 22.74 37.94Q23.15 37.72 23.68 37.72Q24.32 37.72 24.75 38.01Q24.77 38.02 24.79 38.03Q24.96 38.16 25.1 38.32Q25.29 38.57 25.39 38.9L26.46 38.9Q26.31 38.24 25.91 37.78Q25.74 37.58 25.51 37.41Q25.49 37.4 25.48 37.38Q24.76 36.87 23.68 36.87Q22.91 36.87 22.29 37.18Q22.22 37.21 22.16 37.25Q21.9 37.4 21.69 37.6Q21.35 37.91 21.12 38.34ZM29.21 42.86Q29.77 43.09 30.42 43.09Q31.09 43.09 31.67 42.86Q31.83 42.8 31.99 42.71Q32.29 42.54 32.54 42.32Q32.87 42.02 33.1 41.61Q33.12 41.58 33.14 41.54Q33.52 40.86 33.52 39.97Q33.52 39.03 33.11 38.33Q32.88 37.92 32.55 37.62Q32.31 37.41 32.02 37.25Q31.9 37.18 31.77 37.13Q31.18 36.87 30.47 36.87Q29.75 36.87 29.15 37.13Q29.03 37.19 28.92 37.25Q28.65 37.39 28.43 37.59Q28.07 37.9 27.82 38.34Q27.81 38.37 27.79 38.39Q27.42 39.08 27.42 39.97Q27.42 40.91 27.81 41.61Q28.04 42.03 28.38 42.34Q28.61 42.55 28.89 42.71Q29.04 42.8 29.21 42.86ZM50.2 42.86Q50.75 43.09 51.45 43.09Q52.1 43.09 52.6 42.87Q53.06 42.66 53.33 42.3Q53.35 42.27 53.37 42.25Q53.49 42.07 53.56 41.88Q53.65 41.63 53.65 41.36Q53.64 40.86 53.39 40.53Q53.37 40.5 53.34 40.47Q53.18 40.27 52.98 40.14Q52.82 40.03 52.64 39.96Q52.24 39.78 51.59 39.61Q51.07 39.46 50.78 39.35Q50.49 39.23 50.3 39.04Q50.23 38.97 50.18 38.89Q50.1 38.74 50.1 38.55Q50.1 38.39 50.16 38.25Q50.24 38.08 50.42 37.95Q50.74 37.72 51.28 37.72Q51.86 37.72 52.21 38L52.21 38Q52.35 38.12 52.44 38.27Q52.57 38.48 52.59 38.76L53.59 38.76Q53.56 38.18 53.29 37.77Q53.14 37.55 52.93 37.37Q52.91 37.35 52.88 37.33Q52.27 36.87 51.31 36.87Q50.66 36.87 50.16 37.09Q49.65 37.32 49.38 37.7L49.38 37.7Q49.23 37.92 49.16 38.16Q49.1 38.35 49.1 38.55Q49.1 39.09 49.36 39.44Q49.38 39.47 49.4 39.49Q49.59 39.71 49.81 39.86Q49.96 39.96 50.13 40.03Q50.55 40.21 51.23 40.39Q51.96 40.58 52.32 40.77Q52.49 40.87 52.58 41.01Q52.67 41.16 52.67 41.36Q52.67 41.51 52.62 41.64Q52.54 41.84 52.34 41.99Q52.01 42.25 51.44 42.25Q50.82 42.25 50.44 41.96Q50.22 41.79 50.11 41.57Q50.04 41.41 50.02 41.23L48.98 41.23Q49 41.56 49.13 41.85Q49.21 42.03 49.33 42.2Q49.35 42.23 49.38 42.25Q49.69 42.64 50.2 42.86ZM18.51 38.56Q18.76 38.97 18.76 39.54L14.96 39.54Q15.02 38.83 15.4 38.38Q15.48 38.28 15.57 38.2Q15.78 38.01 16.03 37.89Q16.4 37.72 16.86 37.72Q17.33 37.72 17.72 37.88Q17.77 37.9 17.82 37.93Q18.04 38.04 18.22 38.2Q18.39 38.35 18.51 38.56ZM30.98 42.14Q30.71 42.21 30.42 42.21Q30.06 42.21 29.74 42.1Q29.58 42.05 29.44 41.97Q29.36 41.92 29.28 41.87Q28.94 41.63 28.71 41.21Q28.44 40.71 28.44 39.97Q28.44 39.24 28.72 38.74Q28.95 38.32 29.3 38.08Q29.37 38.03 29.45 37.98Q29.57 37.92 29.7 37.87Q30.05 37.74 30.46 37.74Q30.78 37.74 31.08 37.83Q31.28 37.89 31.46 37.98Q31.54 38.03 31.62 38.08Q31.97 38.32 32.2 38.74Q32.49 39.24 32.49 39.97Q32.49 40.7 32.2 41.2Q31.98 41.59 31.65 41.83Q31.55 41.9 31.44 41.96Q31.21 42.08 30.98 42.14ZM46.33 38.78Q46.61 39.29 46.61 39.97Q46.61 40.65 46.33 41.16Q46.13 41.54 45.83 41.78Q45.72 41.87 45.59 41.95Q45.43 42.04 45.25 42.1Q44.93 42.21 44.56 42.21Q44.18 42.21 43.84 42.09Q43.69 42.03 43.54 41.95Q43.43 41.88 43.34 41.81Q43.01 41.56 42.8 41.16Q42.52 40.65 42.52 39.96Q42.52 39.28 42.8 38.77Q43.01 38.38 43.34 38.13Q43.43 38.06 43.54 38Q43.68 37.92 43.83 37.86Q44.17 37.74 44.56 37.74Q44.92 37.74 45.24 37.85Q45.42 37.91 45.59 38.01Q45.72 38.08 45.83 38.18Q46.13 38.42 46.33 38.78Z" fill="#000000" fill-opacity="1.000000" fill-rule="evenodd"/>
</svg>
