<svg width="62.000000" height="62.000000" viewBox="0 0 62 62" fill="none" xmlns="http://www.w3.org/2000/svg" xmlns:xlink="http://www.w3.org/1999/xlink">
	<desc>
			Created with Pixso.
	</desc>
	<defs/>
	<circle id="Ellipse 19" cx="31.000000" cy="31.000000" r="31.000000" fill="#FFFFFF" fill-opacity="1.000000"/>
	<path id="05" d="M22.34 19.67Q21.34 21.24 21.34 24.01Q21.34 26.8 22.34 28.38Q22.62 28.82 23 29.14Q23.99 29.96 25.66 29.96Q27.34 29.96 28.32 29.14Q28.7 28.82 28.98 28.38Q29.98 26.8 29.98 24.01Q29.98 21.24 28.98 19.67Q28.71 19.25 28.35 18.94Q27.36 18.11 25.66 18.11Q23.97 18.11 22.98 18.94Q22.61 19.25 22.34 19.67ZM34.33 20.27L39.52 20.27L39.52 18.3L32.29 18.3L32.29 25.15L34.43 25.15Q34.56 24.78 34.8 24.5Q34.92 24.37 35.07 24.25Q35.1 24.23 35.14 24.2Q35.57 23.92 36.19 23.92Q37.04 23.92 37.52 24.34Q37.58 24.39 37.62 24.44Q38.11 24.96 38.11 25.95Q38.11 26.92 37.64 27.51Q37.64 27.51 37.63 27.52Q37.53 27.65 37.4 27.75Q36.94 28.11 36.21 28.11Q35.45 28.11 34.95 27.75Q34.94 27.74 34.92 27.73Q34.71 27.56 34.56 27.35Q34.36 27.06 34.27 26.7L32.1 26.7Q32.18 27.53 32.56 28.19Q32.86 28.69 33.33 29.08Q33.35 29.11 33.38 29.13Q34.46 30 36.24 30Q37.88 30 38.88 29.2Q39.06 29.05 39.22 28.88Q39.42 28.67 39.57 28.44Q40.27 27.42 40.27 25.92Q40.27 25.13 40.04 24.43Q39.98 24.24 39.9 24.05Q39.77 23.73 39.57 23.45Q39.23 22.97 38.72 22.62Q37.9 22.06 36.62 22.06Q36.12 22.06 35.66 22.19Q35.47 22.25 35.3 22.32Q34.67 22.59 34.33 23L34.33 20.27ZM27.62 22.02Q27.78 22.83 27.78 24.01Q27.78 25.23 27.63 26.05Q27.49 26.87 27.02 27.38Q26.96 27.44 26.9 27.49Q26.45 27.88 25.66 27.88Q24.88 27.88 24.43 27.49Q24.36 27.44 24.3 27.38Q23.84 26.87 23.69 26.05Q23.55 25.23 23.55 24.01Q23.55 22.83 23.7 22.02Q23.85 21.21 24.31 20.7Q24.37 20.63 24.44 20.57Q24.89 20.19 25.66 20.19Q26.44 20.19 26.88 20.57Q26.95 20.63 27.01 20.7Q27.47 21.21 27.62 22.02Z" fill="#000000" fill-opacity="1.000000" fill-rule="evenodd"/>
	<path id="Days" d="M22.4 35.8Q21.48 35.33 20.23 35.33L17.84 35.33L17.84 43L20.23 43Q21.48 43 22.4 42.54Q22.95 42.26 23.35 41.84Q23.61 41.56 23.81 41.22Q24.3 40.36 24.3 39.18Q24.3 38 23.81 37.13Q23.61 36.78 23.34 36.49Q22.95 36.07 22.4 35.8ZM22.4 41.48Q21.62 42.17 20.23 42.17L18.84 42.17L18.84 36.14L20.23 36.14Q21.57 36.14 22.34 36.8Q22.42 36.87 22.49 36.94Q22.58 37.04 22.66 37.13Q23.28 37.91 23.28 39.18Q23.28 40.44 22.66 41.2Q22.58 41.29 22.5 41.38Q22.45 41.43 22.4 41.48ZM25.62 38.34Q25.24 39.03 25.24 39.96Q25.24 40.87 25.62 41.58Q25.62 41.58 25.62 41.59Q25.89 42.1 26.29 42.45Q26.46 42.59 26.64 42.7Q26.85 42.82 27.06 42.91Q27.54 43.09 28.09 43.09Q28.84 43.09 29.42 42.78Q29.44 42.76 29.46 42.75Q30 42.43 30.3 41.96Q30.32 41.92 30.35 41.87L30.35 43L31.36 43L31.36 36.97L30.35 36.97L30.35 38.07Q30.33 38.03 30.31 38Q30.02 37.53 29.48 37.21Q28.9 36.87 28.1 36.87Q27.54 36.87 27.05 37.06Q26.84 37.14 26.65 37.25Q26.42 37.38 26.23 37.55Q25.87 37.88 25.62 38.34ZM40.14 42.86Q40.69 43.09 41.38 43.09Q42.03 43.09 42.53 42.87Q43 42.66 43.27 42.3Q43.29 42.27 43.3 42.25Q43.43 42.07 43.5 41.88Q43.58 41.63 43.58 41.36Q43.57 40.86 43.33 40.53Q43.3 40.5 43.28 40.47Q43.12 40.27 42.92 40.14Q42.76 40.03 42.58 39.96Q42.17 39.78 41.52 39.61Q41.01 39.46 40.72 39.35Q40.43 39.23 40.23 39.04Q40.16 38.97 40.12 38.89Q40.04 38.74 40.04 38.55Q40.04 38.39 40.1 38.25Q40.18 38.08 40.36 37.95Q40.68 37.72 41.22 37.72Q41.8 37.72 42.14 38Q42.15 38 42.15 38Q42.29 38.12 42.38 38.27Q42.51 38.48 42.53 38.76L43.53 38.76Q43.5 38.18 43.22 37.77Q43.08 37.55 42.87 37.37Q42.84 37.35 42.81 37.33Q42.21 36.87 41.25 36.87Q40.6 36.87 40.09 37.09Q39.59 37.32 39.31 37.7L39.31 37.7Q39.16 37.92 39.09 38.16Q39.04 38.35 39.04 38.55Q39.04 39.09 39.3 39.44Q39.32 39.47 39.34 39.49Q39.52 39.71 39.74 39.86Q39.9 39.96 40.07 40.03Q40.49 40.21 41.16 40.39Q41.9 40.58 42.25 40.77Q42.43 40.87 42.52 41.01Q42.6 41.16 42.6 41.36Q42.6 41.51 42.55 41.64Q42.47 41.84 42.27 41.99Q41.94 42.25 41.37 42.25Q40.76 42.25 40.37 41.96Q40.15 41.79 40.05 41.57Q39.97 41.41 39.95 41.23L38.92 41.23Q38.94 41.56 39.06 41.85Q39.14 42.03 39.27 42.2Q39.29 42.23 39.31 42.25Q39.63 42.64 40.14 42.86ZM34.62 45.83L38.25 36.97L37.21 36.97L35.34 41.85L33.45 36.97L32.34 36.97L34.77 42.93L33.58 45.83L34.62 45.83ZM30.07 38.78Q30.35 39.29 30.35 39.97Q30.35 40.65 30.07 41.16Q29.87 41.54 29.57 41.78Q29.46 41.87 29.33 41.95Q29.17 42.04 29 42.1Q28.67 42.21 28.3 42.21Q27.92 42.21 27.59 42.09Q27.43 42.03 27.28 41.95Q27.18 41.88 27.08 41.81Q26.76 41.56 26.54 41.16Q26.27 40.65 26.27 39.96Q26.27 39.28 26.54 38.77Q26.76 38.38 27.08 38.13Q27.18 38.06 27.28 38Q27.42 37.92 27.57 37.86Q27.91 37.74 28.3 37.74Q28.66 37.74 28.98 37.85Q29.16 37.91 29.33 38.01Q29.46 38.08 29.58 38.18Q29.88 38.42 30.07 38.78Z" fill="#000000" fill-opacity="1.000000" fill-rule="evenodd"/>
</svg>
