<svg width="62.000000" height="62.000000" viewBox="0 0 62 62" fill="none" xmlns="http://www.w3.org/2000/svg" xmlns:xlink="http://www.w3.org/1999/xlink">
	<desc>
			Created with Pixso.
	</desc>
	<defs/>
	<circle id="Ellipse 20" cx="31.000000" cy="31.000000" r="31.000000" fill="#FFFFFF" fill-opacity="1.000000"/>
	<path id="23" d="M32.21 19.43Q31.62 20.22 31.56 21.4L33.75 21.4Q33.79 20.98 34 20.65Q34.09 20.5 34.22 20.37Q34.26 20.33 34.31 20.29Q34.71 19.96 35.38 19.96Q36.15 19.96 36.56 20.35Q36.64 20.42 36.7 20.5Q36.97 20.86 36.97 21.42Q36.97 21.89 36.75 22.21Q36.27 22.94 34.69 22.94L34.23 22.94L34.23 24.78L34.69 24.78Q35.98 24.78 36.58 25.2Q36.72 25.29 36.82 25.41Q37.19 25.82 37.19 26.57Q37.19 27.09 36.96 27.48Q36.87 27.62 36.75 27.75Q36.7 27.8 36.65 27.85Q36.22 28.2 35.5 28.2Q34.69 28.2 34.2 27.81Q34.16 27.77 34.11 27.73Q33.97 27.6 33.87 27.45Q33.6 27.04 33.57 26.48L31.4 26.48Q31.45 27.86 32.15 28.72Q32.35 28.96 32.6 29.16Q32.65 29.21 32.71 29.25Q33.83 30.07 35.54 30.07Q36.74 30.07 37.6 29.65Q38.28 29.31 38.69 28.77Q38.8 28.63 38.89 28.48Q38.97 28.34 39.04 28.2Q39.34 27.55 39.34 26.76Q39.34 25.61 38.82 24.88Q38.65 24.64 38.44 24.45Q38 24.05 37.37 23.85L37.37 23.79Q37.46 23.75 37.56 23.71Q38.16 23.45 38.6 22.85Q38.68 22.74 38.75 22.63Q39.13 22 39.13 21.15Q39.13 20.49 38.89 19.93Q38.81 19.75 38.7 19.57Q38.65 19.49 38.59 19.4Q38.18 18.82 37.45 18.47Q36.62 18.06 35.45 18.06Q33.83 18.06 32.8 18.84Q32.74 18.88 32.69 18.93Q32.42 19.16 32.21 19.43ZM25.5 25.33Q24.58 26.19 23.05 27.47L22.21 28.17L22.21 29.83L30.12 29.83L30.12 27.98L25.4 27.98Q26.79 26.8 27.66 25.96Q28.52 25.12 29.19 23.98Q29.66 23.18 29.8 22.32Q29.86 21.96 29.86 21.6Q29.86 20.43 29.34 19.6Q29.15 19.3 28.89 19.04Q28.82 18.97 28.75 18.91Q27.78 18.07 26.09 18.07Q24.87 18.07 23.96 18.6Q23.63 18.8 23.34 19.07Q23.25 19.15 23.16 19.25Q22.26 20.23 22.2 21.98L24.37 21.98Q24.39 21.05 24.82 20.51Q24.96 20.35 25.12 20.24Q25.5 19.98 26.05 19.98Q26.74 19.98 27.12 20.32Q27.18 20.38 27.24 20.44Q27.62 20.91 27.62 21.72Q27.62 22.62 27.01 23.55Q26.41 24.48 25.5 25.33Z" fill="#000000" fill-opacity="1.000000" fill-rule="evenodd"/>
	<path id="Hours" d="M21.75 43L21.75 35.33L20.75 35.33L20.75 38.69L16.84 38.69L16.84 35.33L15.84 35.33L15.84 43L16.84 43L16.84 39.52L20.75 39.52L20.75 43L21.75 43ZM38.92 37.42Q38.69 37.64 38.53 37.95L38.53 36.97L37.53 36.97L37.53 43L38.53 43L38.53 39.72Q38.53 38.73 39.03 38.28Q39.44 37.89 40.22 37.89L40.48 37.89L40.48 36.86Q39.78 36.86 39.29 37.14Q39.08 37.26 38.92 37.42ZM24.86 42.86Q25.43 43.09 26.08 43.09Q26.75 43.09 27.33 42.86Q27.49 42.8 27.65 42.71Q27.95 42.54 28.2 42.32Q28.53 42.02 28.76 41.61Q28.78 41.58 28.8 41.54Q29.17 40.86 29.17 39.97Q29.17 39.03 28.77 38.33Q28.54 37.92 28.2 37.62Q27.97 37.41 27.68 37.25Q27.56 37.18 27.43 37.13Q26.83 36.87 26.13 36.87Q25.41 36.87 24.81 37.13Q24.69 37.19 24.58 37.25Q24.31 37.39 24.09 37.59Q23.73 37.9 23.48 38.34Q23.46 38.37 23.45 38.39Q23.08 39.08 23.08 39.97Q23.08 40.91 23.47 41.61Q23.7 42.03 24.03 42.34Q24.27 42.55 24.55 42.71Q24.7 42.8 24.86 42.86ZM42.53 42.86Q43.08 43.09 43.77 43.09Q44.42 43.09 44.92 42.87Q45.39 42.66 45.66 42.3Q45.68 42.27 45.69 42.25Q45.82 42.07 45.88 41.88Q45.97 41.63 45.97 41.36Q45.96 40.86 45.72 40.53Q45.69 40.5 45.67 40.47Q45.5 40.27 45.31 40.14Q45.15 40.03 44.97 39.96Q44.56 39.78 43.91 39.61Q43.4 39.46 43.1 39.35Q42.81 39.23 42.62 39.04Q42.55 38.97 42.51 38.89Q42.43 38.74 42.43 38.55Q42.43 38.39 42.49 38.25Q42.57 38.08 42.75 37.95Q43.07 37.72 43.61 37.72Q44.19 37.72 44.53 38Q44.53 38 44.54 38Q44.68 38.12 44.77 38.27Q44.9 38.48 44.92 38.76L45.92 38.76Q45.89 38.18 45.61 37.77Q45.47 37.55 45.26 37.37Q45.23 37.35 45.2 37.33Q44.6 36.87 43.64 36.87Q42.99 36.87 42.48 37.09Q41.98 37.32 41.7 37.7L41.7 37.7Q41.55 37.92 41.48 38.16Q41.43 38.35 41.43 38.55Q41.43 39.09 41.69 39.44Q41.71 39.47 41.73 39.49Q41.91 39.71 42.13 39.86Q42.28 39.96 42.46 40.03Q42.88 40.21 43.55 40.39Q44.29 40.58 44.64 40.77Q44.82 40.87 44.91 41.01Q44.99 41.16 44.99 41.36Q44.99 41.51 44.94 41.64Q44.86 41.84 44.66 41.99Q44.33 42.25 43.76 42.25Q43.15 42.25 42.76 41.96Q42.54 41.79 42.44 41.57Q42.36 41.41 42.34 41.23L41.31 41.23Q41.33 41.56 41.45 41.85Q41.53 42.03 41.66 42.2Q41.68 42.23 41.7 42.25Q42.01 42.64 42.53 42.86ZM35.84 43L35.84 36.97L34.84 36.97L34.84 40.28Q34.84 41.23 34.38 41.72Q34.27 41.84 34.13 41.93Q33.72 42.21 33.11 42.21Q32.51 42.21 32.11 41.93Q31.98 41.85 31.88 41.74Q31.87 41.73 31.87 41.73Q31.43 41.25 31.43 40.37L31.43 36.97L30.44 36.97L30.44 40.5Q30.44 41.34 30.76 41.92Q30.98 42.31 31.31 42.57Q31.46 42.7 31.65 42.79Q31.66 42.8 31.68 42.81Q32.23 43.08 32.92 43.08Q33.43 43.08 33.87 42.91Q33.95 42.87 34.04 42.83Q34.4 42.64 34.64 42.36Q34.75 42.24 34.84 42.1L34.84 43L35.84 43ZM26.64 42.14Q26.37 42.21 26.08 42.21Q25.72 42.21 25.4 42.1Q25.24 42.05 25.09 41.97Q25.01 41.92 24.94 41.87Q24.59 41.63 24.37 41.21Q24.1 40.71 24.1 39.97Q24.1 39.24 24.38 38.74Q24.6 38.32 24.95 38.08Q25.03 38.03 25.11 37.98Q25.23 37.92 25.35 37.87Q25.71 37.74 26.12 37.74Q26.44 37.74 26.74 37.83Q26.93 37.89 27.12 37.98Q27.2 38.03 27.27 38.08Q27.63 38.32 27.86 38.74Q28.15 39.24 28.15 39.97Q28.15 40.7 27.86 41.2Q27.63 41.59 27.3 41.83Q27.2 41.9 27.09 41.96Q26.87 42.08 26.64 42.14Z" fill="#000000" fill-opacity="1.000000" fill-rule="evenodd"/>
</svg>
